<svg width="19" height="21" viewBox="0 0 19 21" fill="none" xmlns="http://www.w3.org/2000/svg">
<path d="M13.6307 9.15784V5.37289C13.6307 5.26456 13.5806 5.16446 13.5098 5.08527L9.26636 0.629242C9.18716 0.545929 9.07455 0.5 8.9621 0.5H2.23419C0.992126 0.5 0 1.51288 0 2.7551V15.4771C0 16.7193 0.992126 17.7156 2.23419 17.7156H7.54486C8.54935 19.3829 10.3752 20.5 12.4551 20.5C15.6148 20.5 18.195 17.9323 18.195 14.7685C18.1993 12.0048 16.2151 9.69556 13.6307 9.15784ZM9.37897 1.96317L12.226 4.96014H10.3793C9.8291 4.96014 9.37897 4.50589 9.37897 3.95566V1.96317ZM2.23419 16.8818C1.45477 16.8818 0.83374 16.2565 0.83374 15.4771V2.7551C0.83374 1.97141 1.45477 1.33374 2.23419 1.33374H8.54523V3.95566C8.54523 4.96854 9.36645 5.79388 10.3793 5.79388H12.7969V9.04935C12.672 9.04523 12.5719 9.03271 12.4635 9.03271C11.0088 9.03271 9.67071 9.59134 8.66196 10.4667H3.36807C3.13873 10.4667 2.9512 10.6543 2.9512 10.8835C2.9512 11.1128 3.13873 11.3003 3.36807 11.3003H7.88666C7.59064 11.7172 7.34467 12.1341 7.15301 12.5926H3.36807C3.13873 12.5926 2.9512 12.7801 2.9512 13.0095C2.9512 13.2386 3.13873 13.4263 3.36807 13.4263H6.88202C6.7778 13.8432 6.72363 14.3058 6.72363 14.7685C6.72363 15.5188 6.86951 16.2608 7.13211 16.8861H2.23419V16.8818ZM12.4594 19.6705C9.7583 19.6705 7.56149 17.4737 7.56149 14.7726C7.56149 12.0715 9.75403 9.87469 12.4594 9.87469C15.1646 9.87469 17.3572 12.0715 17.3572 14.7726C17.3572 17.4737 15.1605 19.6705 12.4594 19.6705Z" fill="#404040"/>
<path d="M3.36804 9.21216H7.59061C7.81995 9.21216 8.00748 9.02448 8.00748 8.79529C8.00748 8.56595 7.81995 8.37842 7.59061 8.37842H3.36804C3.1387 8.37842 2.95117 8.56595 2.95117 8.79529C2.95117 9.02448 3.1387 9.21216 3.36804 9.21216Z" fill="#404040"/>
<path d="M12.7549 11.6964C12.6757 11.613 12.5674 11.563 12.4506 11.563C12.3339 11.563 12.2256 11.613 12.1464 11.6964L9.7036 14.3183C9.54522 14.485 9.55773 14.7518 9.72451 14.906C9.89129 15.0644 10.1621 15.0519 10.3205 14.8853L12.0463 13.0387V17.5905C12.0463 17.8199 12.2338 18.0074 12.4632 18.0074C12.6923 18.0074 12.88 17.8199 12.88 17.5905V13.0387L14.5931 14.8853C14.6766 14.9727 14.7849 15.0186 14.8975 15.0186C14.9975 15.0186 15.0976 14.9811 15.1809 14.906C15.3477 14.7477 15.3602 14.485 15.2018 14.3183L12.7549 11.6964Z" fill="#404040"/>
</svg>
